<?xml version="1.0" encoding="UTF-8"?>
<svg width="752pt" height="752pt" version="1.1" viewBox="0 0 752 752" xmlns="http://www.w3.org/2000/svg">
 <g>
  <path d="m416.68 313.47c14.309-20.293 9.4492-48.344-10.844-62.645-20.297-14.309-48.344-9.4492-62.648 10.852-10.945 15.527-10.945 36.266 0 51.797z"/>
  <path d="m406.38 359.03h6.1289c3.0547 0 5.5273-2.4727 5.5273-5.5273v-3.1914h-76.199v3.1914c0 3.0547 2.4727 5.5273 5.5273 5.5273z"/>
  <path d="m346.44 319c-7.3516 0.003906-13.305 5.9688-13.305 13.316 0 5.5703 3.4766 10.551 8.6992 12.48h76.199c6.8945-2.5469 10.418-10.195 7.875-17.09-1.9258-5.2227-6.9102-8.6953-12.48-8.6992l-66.988-0.003906z"/>
  <path d="m449.75 461.51v-3.8438c0-5.1055-3.0078-9.7422-7.6719-11.82-5.6133-2.4961-10.434-6.4844-13.941-11.523-0.48828-0.69531-0.875-1.457-1.1602-2.2578-12.355-20.43-19.395-43.641-20.453-67.496l-53.176-0.003906c-1.0625 23.859-8.0977 47.066-20.457 67.496-0.28516 0.80078-0.67188 1.5586-1.1562 2.2578-3.5156 5.0352-8.3359 9.0234-13.945 11.523-4.6641 2.0781-7.6719 6.7148-7.6719 11.82v3.8438l139.63 0.003906"/>
  <path d="m459.8 490.3c5.4023-6.9297 5.0625-16.727-0.79688-23.266l-158.13-0.003906c-5.8633 6.5391-6.1992 16.34-0.79688 23.266z"/>
  <path d="m296.8 495.82c-2.1094 7.0391 1.8906 14.457 8.9258 16.566 1.2461 0.375 2.5352 0.5625 3.832 0.5625h140.75c7.3555 0 13.316-5.9492 13.316-13.305 0-1.293-0.18359-2.5898-0.55859-3.832l-166.27 0.003906z"/>
 </g>
</svg>