<?xml version="1.0" encoding="UTF-8"?>
<svg width="752pt" height="752pt" version="1.1" viewBox="0 0 752 752" xmlns="http://www.w3.org/2000/svg">
 <g>
  <path d="m340.92 292.11c-3.6875-27.934-14.004-54.574-30.078-77.715-0.875-1.2578-1.1797-2.832-0.82812-4.332 0.6875-2.9219 3.6055-4.7344 6.5273-4.0547 12.438 2.9023 24.055 8.5938 33.969 16.652 3.8789-5.8438 8.3555-11.277 13.336-16.207-5.2383-7.0312-5.2383-16.672 0-23.703 6.5391-8.7852 18.969-10.602 27.758-4.0586 8.7852 6.543 10.609 18.973 4.0586 27.762 4.9961 4.9297 9.4609 10.363 13.336 16.207 9.918-8.0547 21.535-13.75 33.977-16.652 1.4961-0.35156 3.0703-0.046875 4.3281 0.82812 2.4688 1.7109 3.0781 5.0977 1.3672 7.5586-16.078 23.141-26.387 49.781-30.074 77.715z"/>
  <path d="m417.96 297.63h2.8633c6.5195 0 12.238 4.3711 13.938 10.664 2.0898 7.6953-2.4609 15.629-10.16 17.715h-89.695c-6.293-1.7031-10.66-7.418-10.66-13.941 0-7.9766 6.4648-14.441 14.441-14.441h2.8633z"/>
  <path d="m424.61 331.54v3.3203c0 3.7773-3.0586 6.8438-6.8438 6.8438h-76.008c-3.7734 0-6.8398-3.0625-6.8398-6.8438v-3.3203z"/>
  <path d="m296.02 518.87v-4.9688c0-5.5312 3.2578-10.539 8.2969-12.781 7.1953-3.2109 13.375-8.3164 17.879-14.77 0.54297-0.78516 1.0078-1.6367 1.3789-2.5234 10.898-26.195 17.055-54.113 18.176-82.449v-54.148h76.008v54.141c1.1289 28.34 7.2773 56.258 18.176 82.449 0.37109 0.89063 0.83203 1.7383 1.3867 2.5234 4.5039 6.4531 10.684 11.559 17.867 14.77 5.0469 2.25 8.2969 7.25 8.2969 12.781v4.9688l-167.46 0.003907z"/>
  <path d="m283.8 552.1c-6.8711-8.168-6.2852-20.234 1.3398-27.695h189.24c7.6289 7.4531 8.2109 19.527 1.3516 27.695z"/>
  <path d="m279.97 557.62h199.57c0.64844 1.6758 0.98047 3.4414 0.98047 5.2344-0.019531 7.9766-6.4844 14.441-14.469 14.422l-86.293-0.003906h-86.297c-1.7852 0.007812-3.5625-0.32031-5.2266-0.97266-7.4453-2.8711-11.137-11.246-8.2617-18.68z"/>
 </g>
</svg>