<?xml version="1.0" encoding="UTF-8"?>
<svg width="752pt" height="752pt" version="1.1" viewBox="0 0 752 752" xmlns="http://www.w3.org/2000/svg">
 <g>
  <path d="m476.93 581.3h-199.57c-2.875 7.4336 0.81641 15.809 8.2578 18.684 1.668 0.64844 3.4414 0.98047 5.2266 0.97266h172.6c7.9766 0.019531 14.449-6.4453 14.457-14.422 0.003906-1.793-0.32422-3.5625-0.97266-5.2344z"/>
  <path d="m338.3 315.79c-3.8398-29.152-14.898-56.887-32.18-80.684 15.5-10.266 33.051-17.059 51.426-19.891 0.85156-5.4336 3.9219-10.273 8.4727-13.355v-8.3164h-13.051c-3.0586 0-5.5312-2.4727-5.5312-5.5273v-11.203c0-3.0547 2.4727-5.5273 5.5312-5.5273h13.051v-14.227c0-3.0547 2.4766-5.5273 5.5312-5.5273h11.199c3.0547 0 5.5234 2.4766 5.5234 5.5273v14.23h13.051c3.0547 0 5.5312 2.4727 5.5312 5.5273v11.199c0 3.0547-2.4766 5.5273-5.5312 5.5273h-13.051v8.3164c4.5625 3.082 7.6211 7.9219 8.4805 13.355 18.371 2.832 35.918 9.625 51.418 19.891-17.266 23.797-28.328 51.531-32.18 80.684z"/>
  <path d="m332.3 349.7c-6.293-1.7031-10.66-7.418-10.66-13.941 0-7.9766 6.4531-14.441 14.434-14.441h82.133c6.5195 0 12.238 4.3711 13.945 10.664 2.0781 7.6953-2.4688 15.629-10.172 17.715z"/>
  <path d="m339.14 365.38c-3.7734 0-6.8398-3.0625-6.8398-6.8438v-3.3203h89.688v3.3203c0 3.7773-3.0586 6.8438-6.832 6.8438z"/>
  <path d="m415.16 370.91v54.141c1.1289 28.34 7.2773 56.258 18.176 82.449 0.37109 0.89062 0.83203 1.7383 1.3867 2.5234 4.5039 6.4531 10.684 11.559 17.867 14.77 5.0469 2.25 8.2969 7.25 8.2969 12.781v4.9688l-167.46 0.003906v-4.9688c0-5.5312 3.2539-10.539 8.293-12.781 7.1953-3.2109 13.375-8.3164 17.867-14.77 0.55469-0.78516 1.0195-1.6367 1.3867-2.5234 10.898-26.195 17.051-54.113 18.176-82.449l0.003906-54.145z"/>
  <path d="m471.77 548.08c7.6289 7.4531 8.2109 19.527 1.3516 27.695h-191.95c-6.8633-8.168-6.2812-20.234 1.3516-27.695z"/>
 </g>
</svg>