<?xml version="1.0" encoding="UTF-8"?>
<svg width="752pt" height="752pt" version="1.1" viewBox="0 0 752 752" xmlns="http://www.w3.org/2000/svg">
 <g>
  <path d="m478.91 531.24h-199.57c-2.875 7.4336 0.81641 15.797 8.2578 18.68 1.668 0.64844 3.4414 0.97656 5.2266 0.97656l86.301-0.003906h86.301c7.9766 0.007813 14.449-6.4453 14.457-14.43 0.007812-1.7812-0.32812-3.5586-0.97656-5.2227z"/>
  <path d="m475.1 525.71c6.8633-8.1602 6.2812-20.234-1.3516-27.695h-189.25c-7.6289 7.4531-8.2148 19.535-1.3516 27.695z"/>
  <path d="m462.87 492.49v-25.996c0-7.6289-6.1914-13.82-13.82-13.82h-5.668l-128.5 0.003906h-5.6641c-7.6328 0-13.824 6.1914-13.824 13.82v25.996z"/>
  <path d="m314.88 447.15h128.49v-15.965c10.785-19.875 16.051-42.277 15.246-64.871-2.207-62.262-30.43-120.74-77.816-161.18-3.5312-3.0117-8.8398-2.5938-11.855 0.9375-1.293 1.5195-2.0117 3.457-2.0117 5.4609v30.023l-19.984 4.3789c-16.109 3.5312-28.367 16.641-30.812 32.945l-43.805 67.16c0.046874 14.344 11.711 25.938 26.055 25.895 12.562-0.042969 23.301-9.0742 25.492-21.449l25.359-12.336c3.5898-1.7461 7.8711-1.2578 10.977 1.25 4.4336 3.5742 5.1211 10.062 1.543 14.492l-37.562 46.531c-6.0273 7.4727-9.3242 16.789-9.3242 26.395v20.336z"/>
 </g>
</svg>