<?xml version="1.0" encoding="UTF-8"?>
<svg width="752pt" height="752pt" version="1.1" viewBox="0 0 752 752" xmlns="http://www.w3.org/2000/svg">
 <g>
  <path d="m478.29 526.5h-199.57c-2.8828 7.4336 0.81641 15.797 8.25 18.68 1.6758 0.64844 3.4414 0.97656 5.2344 0.97656h172.59c7.9766 0.007812 14.449-6.4453 14.457-14.43 0.011719-1.7812-0.32422-3.5586-0.96875-5.2266z"/>
  <path d="m474.46 520.97c6.8711-8.1602 6.2891-20.234-1.3398-27.695h-189.25c-7.625 7.4531-8.2109 19.535-1.3438 27.695z"/>
  <path d="m462.23 487.75v-4.9727c0-5.5234-3.2578-10.531-8.2969-12.781-7.1992-3.2031-13.375-8.3047-17.867-14.77-0.55469-0.78516-1.0195-1.6367-1.3867-2.5234-10.664-25.641-16.797-52.938-18.102-80.676l-76.16-0.003906c-1.3125 27.738-7.4336 55.035-18.105 80.676-0.37109 0.89062-0.83984 1.7383-1.3828 2.5234-4.5 6.4648-10.684 11.57-17.867 14.77-5.0469 2.2539-8.2969 7.2617-8.2969 12.781v4.9727z"/>
  <path d="m416.51 366.5c3.7734 0 6.832-3.0625 6.832-6.8438v-3.3203l-89.691 0.003906v3.3203c0 3.7773 3.0586 6.8438 6.832 6.8438z"/>
  <path d="m332.07 317.07h92.855c8.3555-17.035 6.7266-37.277-4.2617-52.738-7.2227-12.066-16.109-23.055-26.406-32.633 6.4648-8.7031 4.6406-20.992-4.0586-27.449-8.7031-6.4609-20.992-4.6367-27.449 4.0625-5.1523 6.9414-5.1523 16.441 0 23.387-10.297 9.582-19.184 20.562-26.402 32.633-10.996 15.461-12.629 35.703-4.2773 52.738z"/>
  <path d="m423.34 350.81c7.707-2.082 12.258-10.016 10.164-17.715-1.4883-5.5078-6.0859-9.6172-11.73-10.496h-86.562c-7.8789 1.2227-13.273 8.6016-12.051 16.484 0.87109 5.6367 4.9805 10.234 10.488 11.73h89.691z"/>
 </g>
</svg>