<?xml version="1.0" encoding="UTF-8"?>
<svg width="752pt" height="752pt" version="1.1" viewBox="0 0 752 752" xmlns="http://www.w3.org/2000/svg">
 <g>
  <path d="m480.18 498.09h-199.56c-2.8789 7.4336 0.81641 15.797 8.25 18.68 1.6719 0.64844 3.4492 0.97656 5.2344 0.97656l86.305-0.003907h86.285c7.9844 0.007813 14.457-6.4453 14.457-14.43 0.011718-1.7812-0.32031-3.5547-0.96875-5.2227z"/>
  <path d="m285.77 464.86c-7.6289 7.4531-8.2109 19.535-1.3516 27.695h191.94c6.8711-8.1602 6.2812-20.234-1.3398-27.695z"/>
  <path d="m342.32 343.61c-1.3125 27.738-7.4258 55.035-18.102 80.676-0.37109 0.89062-0.83203 1.7383-1.3828 2.5234-4.5 6.4648-10.68 11.57-17.867 14.77-5.043 2.2539-8.293 7.2617-8.293 12.781v4.9727h167.46v-4.9727c0-5.5234-3.25-10.531-8.2891-12.781-7.1992-3.2031-13.375-8.3047-17.879-14.77-0.54297-0.78516-1.0078-1.6367-1.3789-2.5234-10.676-25.641-16.797-52.938-18.109-80.676z"/>
  <path d="m335.55 327.92v3.3203c0 3.7773 3.0586 6.8438 6.8438 6.8438h76c3.7852 0 6.8438-3.0625 6.8438-6.8438v-3.3203z"/>
  <path d="m425.25 322.4c4.3203-1.168 7.8516-4.2773 9.5664-8.4102l-108.82-0.003906c1.7148 4.1328 5.2422 7.2422 9.5664 8.4102z"/>
  <path d="m324.89 308.45h114.85c2.7188 0 5.0391-1.9805 5.457-4.6758l10.852-69.426c0.46484-3.0156-1.5898-5.8438-4.6094-6.3125-0.28906-0.042968-0.57422-0.066406-0.85156-0.066406h-31.891c-2.7188 0-5.0312 1.9844-5.457 4.6758l-4.3398 27.781h-6.9648l-0.003906-26.93c0-3.0547-2.4688-5.5273-5.5234-5.5273h-32.031c-3.0547 0-5.5273 2.4727-5.5273 5.5273v26.93h-6.957l-4.3398-27.781c-0.42188-2.6914-2.7383-4.6758-5.4648-4.6758h-31.875c-3.0547 0-5.5273 2.4727-5.5273 5.5273 0 0.28906 0.019531 0.57422 0.066406 0.85156l10.852 69.426c0.41797 2.6914 2.7383 4.6758 5.4609 4.6758z"/>
 </g>
</svg>