<?xml version="1.0" encoding="UTF-8"?>
<svg width="752pt" height="752pt" version="1.1" viewBox="0 0 752 752" xmlns="http://www.w3.org/2000/svg">
 <path d="m425.25 323.16v8.8477c0 3.7773-3.0586 6.8398-6.8438 6.8398v3.75c1.1289 28.344 7.2891 56.258 18.184 82.457 0.37109 0.89062 0.83203 1.7305 1.3789 2.5234 4.5039 6.4531 10.684 11.559 17.879 14.77 5.0391 2.25 8.2891 7.25 8.2891 12.777v4.9727c3.6094 0.60156 6.9766 2.1562 9.7734 4.5117 8.6094 7.2422 9.7148 20.098 2.4609 28.707 3.0547 2.7422 4.793 6.6523 4.7812 10.758 0 7.9766-6.4727 14.43-14.457 14.422h-172.59c-4.1016 0.007812-8.0195-1.7344-10.758-4.7891-5.3281-5.9336-4.8438-15.066 1.0859-20.398-2.3477-2.793-3.9062-6.168-4.5078-9.7695-1.8516-11.102 5.6445-21.602 16.746-23.445v-4.9727c0-5.5273 3.25-10.531 8.293-12.777 7.1875-3.2109 13.375-8.3164 17.867-14.77 0.55469-0.79688 1.0117-1.6367 1.3828-2.5234 10.898-26.195 17.055-54.113 18.18-82.457v-3.75c-3.7852 0-6.8438-3.0586-6.8438-6.8398v-8.8477c-6.2969-1.7031-10.664-7.418-10.664-13.938h-3.8281c-2.7227 0-5.0391-1.9844-5.4609-4.6758l-10.84-69.434c-0.046874-0.28125-0.066406-0.56641-0.066406-0.85156 0-3.0547 2.4727-5.5273 5.5273-5.5273h31.875c2.7266 0 5.043 1.9805 5.4648 4.6758l4.3398 27.781h6.957v-26.93c0-3.0547 2.4727-5.5273 5.5273-5.5273h32.031c3.0547 0 5.5234 2.4727 5.5234 5.5273v26.93h6.9648l4.3398-27.781c0.42578-2.6914 2.7383-4.6758 5.457-4.6758h31.891c0.28125 0 0.5625 0.019531 0.85156 0.066406 3.0156 0.46875 5.0664 3.2969 4.6094 6.3125l-10.852 69.434c-0.41797 2.6914-2.7383 4.6758-5.457 4.6758h-3.832c0 6.5195-4.3711 12.23-10.664 13.941zm-44.84 144.95h-80.387c-6.6758 0-12.086 5.4141-12.086 12.09 0 6.668 5.4102 12.082 12.086 12.082h160.77c6.6758 0 12.082-5.4141 12.082-12.082 0-6.6758-5.4023-12.09-12.082-12.09h-80.383m0-137.55h36.555v-9.5625l-36.555 0.003906h-36.562v9.5625zm0 167.36h-86.32c-3.3945 0-6.1484 2.75-6.1484 6.1523 0 3.3945 2.75 6.1523 6.1484 6.1523h86.32 86.301c3.4062 0.003906 6.1602-2.7461 6.1602-6.1406 0.007812-3.4062-2.7383-6.1602-6.1406-6.1602-0.015624-0.003906-86.32-0.003906-86.32-0.003906zm0-35.422h75.441v-7.3594c0-2.2539-1.3203-4.2891-3.3867-5.2109-8.5664-3.8203-15.926-9.9062-21.293-17.609-0.89062-1.2773-1.6367-2.6484-2.2383-4.0781-11.293-27.145-17.664-56.09-18.816-85.473v-6.5781l-29.707 0.003906h-29.719v6.5781c-1.1445 29.383-7.5195 58.328-18.816 85.473-0.60156 1.4336-1.3516 2.8047-2.2383 4.0781-5.3672 7.6992-12.73 13.785-21.301 17.609-2.0547 0.91406-3.3828 2.957-3.3828 5.2109v7.3594l75.457-0.003907m56.551-158.9 10.395-66.562h-26.289l-5.0664 32.453h-22.348v-32.453h-26.508v32.453h-22.34l-5.0664-32.453h-26.293l10.406 66.562zm-97.621 11.781h82.121c3.3945 0.003906 6.1523-2.7461 6.1523-6.1523l-94.43 0.003906c0 3.3945 2.7578 6.1484 6.1562 6.1484z"/>
</svg>