<?xml version="1.0" encoding="UTF-8"?>
<svg width="752pt" height="752pt" version="1.1" viewBox="0 0 752 752" xmlns="http://www.w3.org/2000/svg">
 <path d="m472.63 493.03c8.6094 7.2422 9.7148 20.098 2.4688 28.707 3.0547 2.7422 4.793 6.6523 4.7812 10.758-0.007812 7.9766-6.4844 14.43-14.457 14.422l-86.297 0.003907h-86.297c-4.1055 0.007812-8.0117-1.7344-10.754-4.7891-5.3359-5.9336-4.8438-15.066 1.0859-20.398-2.3477-2.793-3.9023-6.168-4.5039-9.7695-1.8516-11.102 5.6406-21.602 16.742-23.445v-25.996c0-7.6289 6.1914-13.812 13.824-13.812h5.6641v-25.871c0-9.6055 3.293-18.918 9.3242-26.395l37.562-46.531c3.5742-4.4297 2.8828-10.918-1.543-14.492-3.1055-2.5117-7.3945-2.9922-10.977-1.25l-25.359 12.336c-2.1914 12.375-12.926 21.41-25.492 21.449-14.344 0.046875-26.008-11.547-26.055-25.891l43.805-67.16c2.4453-16.305 14.699-29.414 30.812-32.945l19.984-4.3789v-30.023c0-2 0.71484-3.9336 2.0117-5.457 3.0156-3.5312 8.3242-3.9492 11.855-0.9375 47.371 40.438 75.594 98.918 77.797 161.18 0.80469 22.594-4.457 44.996-15.246 64.867v21.496h5.668c7.6289 0 13.82 6.1836 13.82 13.812v25.996c3.6055 0.60547 6.9766 2.1562 9.7734 4.5156zm-93.504 3.4961h-80.383c-6.6719 0-12.086 5.4141-12.086 12.09 0 6.668 5.4141 12.082 12.086 12.082h160.77c6.6758 0 12.09-5.4141 12.09-12.082 0-6.6758-5.4141-12.09-12.09-12.09h-80.383m0 29.801h-86.316c-3.3945 0-6.1523 2.75-6.1523 6.1523 0 3.3945 2.7578 6.1523 6.1523 6.1523h86.316 86.309c3.3945 0.003906 6.1523-2.7461 6.1602-6.1406 0.007813-3.4062-2.7461-6.1602-6.1406-6.1602-0.011719-0.003906-86.328-0.003906-86.328-0.003906zm-75.438-35.422h150.89v-28.383c0-3.0547-2.4688-5.5273-5.5312-5.5273h-139.83c-3.0586 0-5.5273 2.4727-5.5273 5.5273zm19.477-39.543h111.92v-26.289c10.742-19.008 16.02-40.613 15.254-62.438-2.125-60.027-29.387-116.4-75.113-155.34v36.949l-26.512 5.8125c-13.355 2.9258-23.297 14.156-24.582 27.77l-43.359 66.469c1.2852 9.6836 10.168 16.496 19.848 15.215 9.1172-1.2031 15.789-9.1875 15.352-18.375l29.645-14.422c6.4844-3.1523 14.207-2.2734 19.816 2.2539 7.9922 6.4492 9.2344 18.156 2.7852 26.145l-37.555 46.531c-4.8438 6-7.4922 13.477-7.4922 21.188z"/>
</svg>