<?xml version="1.0" encoding="UTF-8"?>
<svg width="752pt" height="752pt" version="1.1" viewBox="0 0 752 752" xmlns="http://www.w3.org/2000/svg">
 <path d="m377.11 577.27h-86.293c-4.1055 0.007812-8.0195-1.7305-10.758-4.7812-5.332-5.9375-4.8438-15.07 1.0859-20.398-2.3555-2.793-3.9062-6.1719-4.5078-9.7656-1.8516-11.102 5.6445-21.605 16.746-23.457v-4.9688c0-5.5312 3.2539-10.539 8.2969-12.781 7.1875-3.2109 13.371-8.3164 17.867-14.77 0.55469-0.78516 1.0195-1.6367 1.3867-2.5234 10.891-26.195 17.051-54.113 18.176-82.449l-0.003906-59.676c-3.7773 0-6.8438-3.0625-6.8438-6.8438v-8.8477c-6.293-1.7031-10.664-7.418-10.664-13.941 0-7.9766 6.4648-14.441 14.445-14.441h2.8633c-2.9922-29.906-13.562-58.555-30.711-83.242-0.875-1.2578-1.1797-2.832-0.82422-4.332 0.67578-2.9219 3.5977-4.7344 6.5195-4.0547 12.441 2.9023 24.059 8.5938 33.969 16.652 3.8789-5.8438 8.3477-11.277 13.34-16.207-5.2383-7.0312-5.2383-16.672 0-23.703 6.543-8.7852 18.973-10.602 27.762-4.0586 8.7852 6.543 10.602 18.973 4.0586 27.762 4.9922 4.9297 9.4609 10.363 13.336 16.207 9.918-8.0547 21.535-13.75 33.969-16.652 1.4961-0.35156 3.0703-0.046875 4.3398 0.82812 2.4609 1.7109 3.0703 5.0977 1.3594 7.5586-17.148 24.684-27.723 53.336-30.711 83.242h2.8633c6.5195 0 12.234 4.3711 13.938 10.664 2.082 7.6953-2.4688 15.629-10.164 17.715v8.8477c0 3.7773-3.0625 6.8438-6.8438 6.8438v59.668c1.1289 28.34 7.2852 56.258 18.18 82.449 0.37109 0.89062 0.83203 1.7383 1.3828 2.5234 4.5039 6.4531 10.684 11.559 17.871 14.77 5.043 2.25 8.293 7.25 8.293 12.781v4.9688c3.6055 0.60156 6.9805 2.1641 9.7695 4.5117 8.6055 7.25 9.7148 20.098 2.4688 28.707 3.0547 2.7383 4.793 6.6602 4.7891 10.754-0.007812 7.9766-6.4844 14.441-14.465 14.422l-86.285 0.011719zm0-50.395h-80.379c-6.6719 0-12.086 5.4219-12.086 12.09 0 6.6758 5.4141 12.09 12.086 12.09h160.77c6.6719 0 12.086-5.4141 12.086-12.09 0-6.668-5.4141-12.09-12.086-12.09h-80.391m0 29.805h-86.312c-3.3945 0-6.1523 2.7578-6.1523 6.1523 0 3.3945 2.7578 6.1523 6.1523 6.1523h86.32l86.305-0.003906c3.3945 0.007813 6.1562-2.7461 6.1562-6.1406 0.007813-3.3945-2.7461-6.1602-6.1406-6.1602h-86.328zm0-223.27h36.555v-9.5625h-73.109v9.5625zm41.059-15.188c3.3984 0.003906 6.1562-2.7461 6.1602-6.1406 0.003907-3.3945-2.7461-6.1562-6.1523-6.1602h-82.141c-3.3945 0-6.1523 2.7578-6.1523 6.1523s2.7578 6.1523 6.1602 6.1523h41.062zm-41.059 203.03h75.445v-7.3555c0-2.25-1.3242-4.2891-3.3828-5.2109-8.5703-3.8203-15.93-9.918-21.297-17.613-0.89062-1.2773-1.6445-2.6484-2.2383-4.0781-11.293-27.145-17.664-56.09-18.816-85.469l0.003906-62.488h-59.43v62.492c-1.1523 29.375-7.5156 58.316-18.812 85.469-0.59766 1.4336-1.3516 2.8047-2.2383 4.0781-5.3672 7.6953-12.73 13.789-21.301 17.613-2.0547 0.91406-3.3828 2.9609-3.3828 5.2109v7.3555l75.449-0.003907m11.219-329.4c-1.5156-6.1953-7.7656-9.9883-13.961-8.4727-6.1953 1.5156-9.9883 7.7656-8.4727 13.961 1.0234 4.1875 4.2891 7.4531 8.4727 8.4766-10.176 8.1445-18.555 18.324-24.594 29.883-8.4258-8.8594-18.867-15.559-30.438-19.516 16.062 25.34 25.719 54.207 28.137 84.113h59.277c2.4219-29.902 12.082-58.77 28.141-84.113-11.57 3.9609-22.012 10.656-30.441 19.516-6.0391-11.559-14.41-21.734-24.594-29.883 6.1953-1.5195 9.9883-7.7695 8.4727-13.965z"/>
</svg>