<?xml version="1.0" encoding="UTF-8"?>
<svg width="752pt" height="752pt" version="1.1" viewBox="0 0 752 752" xmlns="http://www.w3.org/2000/svg">
 <path d="m292.2 546.92c-4.1055 0.007812-8.0195-1.7344-10.766-4.7891-5.3281-5.9336-4.8438-15.066 1.0898-20.398-2.3555-2.793-3.9062-6.168-4.5039-9.7695-1.8594-11.102 5.6406-21.602 16.742-23.445v-4.9727c0-5.5273 3.25-10.531 8.2969-12.777 7.1875-3.2109 13.371-8.3164 17.867-14.77 0.54297-0.79688 1.0117-1.6367 1.3828-2.5234 10.891-26.195 17.055-54.113 18.172-82.457v-3.75c-3.7734 0-6.832-3.0586-6.832-6.8398v-8.8477c-5.5078-1.4922-9.6172-6.0898-10.488-11.73-1.2227-7.8867 4.1719-15.262 12.051-16.48-11.641-17.809-11.191-40.926 1.1211-58.266 7.2188-12.066 16.105-23.055 26.402-32.633-5.1523-6.9414-5.1523-16.441 0-23.387 6.4531-8.7031 18.746-10.523 27.449-4.0625 8.7031 6.4531 10.527 18.75 4.0586 27.449 10.297 9.5742 19.184 20.562 26.406 32.633 12.324 17.344 12.762 40.457 1.1172 58.266 5.6406 0.87109 10.238 4.9883 11.73 10.496 2.0898 7.6992-2.4609 15.633-10.164 17.715v8.8477c0 3.7773-3.0586 6.8398-6.832 6.8398v3.75c1.1172 28.344 7.2773 56.258 18.176 82.457 0.37109 0.89062 0.83203 1.7305 1.3867 2.5234 4.4961 6.4531 10.676 11.559 17.867 14.77 5.0391 2.25 8.2969 7.25 8.2969 12.777v4.9727c3.5977 0.60156 6.9766 2.1562 9.7656 4.5117 8.6016 7.2422 9.7031 20.098 2.4609 28.707 3.0586 2.7422 4.8008 6.6523 4.793 10.758-0.007812 7.9766-6.4844 14.43-14.457 14.422l-86.297 0.003907zm86.293-50.395h-80.379c-6.6719 0-12.086 5.4141-12.086 12.09 0 6.668 5.4141 12.082 12.086 12.082h160.76c6.6758 0 12.09-5.4141 12.09-12.082 0-6.6758-5.4141-12.09-12.09-12.09h-80.383m0-137.55h36.555v-9.5625h-73.105v9.5625zm2.3867-127.12c6.1133-1.3164 10.008-7.3438 8.6953-13.465-1.3203-6.1172-7.3555-10.012-13.465-8.6914-6.125 1.3125-10.012 7.3438-8.6953 13.461 0.93359 4.3516 4.3398 7.7578 8.6953 8.6953-13.117 10.539-24.234 23.332-32.84 37.793-12.496 17.32-10.547 41.152 4.6094 56.215h61.23c15.141-15.059 17.09-38.895 4.5898-56.215-8.5938-14.461-19.711-27.254-32.82-37.793zm-2.3867 294.48h-86.312c-3.4062 0-6.1523 2.75-6.1523 6.1523 0 3.3945 2.7461 6.1523 6.1523 6.1523h86.316 86.309c3.3945 0.003906 6.1523-2.7461 6.1602-6.1406 0-3.4062-2.7461-6.1602-6.1523-6.1602zm0-35.422h75.441v-7.3594c0-2.2539-1.3203-4.2891-3.375-5.2109-8.5781-3.8203-15.938-9.9062-21.301-17.609-0.89062-1.2773-1.6484-2.6484-2.2383-4.0781-11.285-27.145-17.664-56.09-18.816-85.473v-6.5781h-59.426v6.5781c-1.1445 29.387-7.5195 58.328-18.816 85.473-0.59375 1.4336-1.3438 2.8047-2.2383 4.0781-5.3672 7.6992-12.73 13.785-21.293 17.609-2.0664 0.91406-3.3867 2.957-3.3867 5.2109v7.3594h75.449m41.062-147.12c3.3945 0.003906 6.1602-2.7461 6.1602-6.1406 0.007812-3.3984-2.7461-6.1562-6.1523-6.1602h-82.133c-3.4062 0-6.1602 2.7578-6.1602 6.1523s2.7578 6.1523 6.1719 6.1523h41.055z"/>
</svg>