<?xml version="1.0" encoding="UTF-8"?>
<svg width="752pt" height="752pt" version="1.1" viewBox="0 0 752 752" xmlns="http://www.w3.org/2000/svg">
 <path d="m459.8 491.06c2.4609 2.4922 3.8398 5.8516 3.8359 9.3594-0.003906 7.3516-5.9688 13.309-13.316 13.297h-140.76c-3.5 0.003906-6.8633-1.375-9.3594-3.832-5.2266-5.1602-5.2891-13.586-0.12891-18.824-1.5859-2.0352-2.7227-4.3867-3.3281-6.8906-2.3555-9.7422 3.6367-19.543 13.375-21.902v-3.8398c0-5.1133 3.0078-9.7422 7.6719-11.82 5.6133-2.5 10.434-6.4844 13.945-11.527 0.48438-0.69141 0.875-1.457 1.1562-2.2578 13.332-22.031 20.449-47.262 20.602-73.027h-6.1328c-3.0547 0-5.5273-2.4727-5.5273-5.5273v-8.7148c-5.2266-1.9336-8.6992-6.9102-8.6992-12.484 0-7.3516 5.957-13.309 13.309-13.309h1.3438c-17.078-17.465-17.078-45.383 0-62.848 17.355-17.754 45.82-18.078 63.574-0.71875 17.754 17.355 18.078 45.82 0.71875 63.574h1.3438c5.5703 0 10.555 3.4727 12.484 8.6992 2.543 6.8945-0.98047 14.547-7.875 17.09v8.7188c0 3.0547-2.4727 5.5273-5.5273 5.5273h-6.1289c0.14844 25.758 7.2656 50.996 20.598 73.027 0.28906 0.80078 0.67578 1.5625 1.1602 2.2578 3.5078 5.0391 8.3359 9.0234 13.941 11.527 4.6641 2.0781 7.6719 6.707 7.6719 11.82v3.8398c2.5039 0.60937 4.8555 1.7383 6.8906 3.3281 7.9102 6.1523 9.3242 17.551 3.1602 25.457zm-79.859-21.012h-65.555c-5.4414 0-9.8555 4.418-9.8555 9.8555 0 5.4414 4.4141 9.8555 9.8555 9.8555h131.11c5.4414 0 9.8555-4.4141 9.8555-9.8555 0-5.4375-4.4141-9.8555-9.8555-9.8555h-65.555m0-118.54h29.812v-7.7969h-59.625v7.7969zm0 143.88h-70.391c-2.7695 0-5.0195 2.25-5.0195 5.0195s2.2461 5.0195 5.0195 5.0195h70.387 70.379c2.7734 0 5.0234-2.2383 5.0312-5.0156 0-2.7695-2.2461-5.0195-5.0156-5.0234h-70.391zm0-30.969h61.523v-5.9961c0-1.8438-1.0859-3.5039-2.7578-4.2461-6.9883-3.1133-12.996-8.0781-17.371-14.355-0.72266-1.043-1.3359-2.1602-1.8242-3.3281-14.34-23.965-21.75-51.43-21.41-79.352h-36.328c0.33984 27.922-7.0703 55.391-21.41 79.352-0.48828 1.168-1.0977 2.2891-1.8281 3.3281-4.375 6.2734-10.375 11.242-17.367 14.355-1.6758 0.74219-2.7578 2.4102-2.7578 4.2461v5.9961h61.531m33.48-126.33c2.7695 0 5.0195-2.2383 5.0312-5.0117 0-2.7695-2.2461-5.0195-5.0195-5.0234h-66.984c-2.7695 0-5.0195 2.2461-5.0195 5.0156 0 2.7695 2.25 5.0195 5.0234 5.0195zm0.60156-63.254c-7.457-18.828-28.766-28.039-47.59-20.582-18.828 7.457-28.039 28.77-20.582 47.594 3.7266 9.4062 11.172 16.855 20.582 20.582h27.012c18.828-7.4648 28.043-28.773 20.578-47.594z"/>
</svg>