<?xml version="1.0" encoding="UTF-8"?>
<svg width="752pt" height="752pt" version="1.1" viewBox="0 0 752 752" xmlns="http://www.w3.org/2000/svg">
 <path d="m282.18 596.17c-5.332-5.9375-4.8398-15.07 1.0898-20.398-2.3555-2.793-3.918-6.1719-4.5117-9.7656-1.8516-11.102 5.6445-21.605 16.746-23.457v-4.9688c0-5.5312 3.25-10.539 8.293-12.781 7.1953-3.2109 13.371-8.3164 17.867-14.77 0.55469-0.78516 1.0195-1.6367 1.3867-2.5234 10.898-26.195 17.055-54.113 18.176-82.449v-59.672c-3.7734 0-6.8398-3.0625-6.8398-6.8438v-8.8477c-6.293-1.7031-10.668-7.418-10.668-13.941 0-7.9766 6.4688-14.441 14.449-14.441h2.8594c-3.1133-31.137-14.434-60.883-32.82-86.211 15.504-10.266 33.047-17.059 51.426-19.891 0.85156-5.4336 3.9219-10.273 8.4727-13.355v-8.3164h-13.055c-3.0508 0-5.5273-2.4727-5.5273-5.5273v-11.199c0-3.0547 2.4766-5.5273 5.5273-5.5273h13.055v-14.227c0-3.0547 2.4766-5.5273 5.5234-5.5273h11.211c3.0547 0 5.5234 2.4766 5.5234 5.5273v14.23h13.051c3.0547 0 5.5312 2.4727 5.5312 5.5273v11.199c0 3.0547-2.4766 5.5273-5.5312 5.5273h-13.051v8.3164c4.5508 3.082 7.6211 7.9219 8.4727 13.355 18.379 2.832 35.926 9.625 51.426 19.891-18.379 25.328-29.707 55.074-32.828 86.211h2.8633c6.5312 0 12.238 4.3711 13.938 10.664 2.0898 7.6953-2.4609 15.629-10.16 17.715v8.8477c0 3.7773-3.0703 6.8438-6.8438 6.8438v59.668c1.1289 28.34 7.2773 56.258 18.176 82.449 0.37109 0.89062 0.83203 1.7383 1.3867 2.5234 4.4961 6.4531 10.676 11.559 17.867 14.77 5.0469 2.25 8.2969 7.25 8.2969 12.781v4.9688c3.5977 0.60156 6.9766 2.1641 9.7656 4.5117 8.6094 7.25 9.7148 20.098 2.4609 28.707 3.0586 2.7383 4.8008 6.6602 4.8008 10.754-0.019531 7.9766-6.4922 14.441-14.469 14.422l-172.57 0.003906c-4.1055 0.019532-8.0195-1.7188-10.766-4.7734zm97.062-51.23h75.449v-7.3555c0-2.25-1.3203-4.2891-3.3867-5.2109-8.5664-3.8203-15.926-9.918-21.301-17.613-0.89062-1.2773-1.6367-2.6484-2.2383-4.0781-11.285-27.145-17.66-56.09-18.805-85.469l-0.003907-62.488h-59.438v62.492c-1.1445 29.375-7.5195 58.316-18.812 85.469-0.59766 1.4336-1.3438 2.8047-2.2383 4.0781-5.3672 7.6953-12.73 13.789-21.301 17.613-2.0547 0.91406-3.375 2.9609-3.375 5.2109v7.3555l75.449-0.003906m36.551-187.84v-9.5625h-73.105v9.5625zm4.5078-15.188c3.4062 0.003906 6.1602-2.7461 6.1719-6.1406 0-3.3945-2.7461-6.1562-6.1523-6.1602h-41.078-41.062c-3.3945 0-6.1523 2.7578-6.1523 6.1523s2.7578 6.1523 6.1523 6.1523c0-0.003906 82.121-0.003906 82.121-0.003906zm-100.3-104.32c16.926 25.867 27.109 55.566 29.605 86.383h59.27c2.4961-30.816 12.672-60.516 29.598-86.383-14.895-8.4297-31.43-13.582-48.477-15.113 2.3203-5.9375-0.60938-12.637-6.5586-14.961-0.44531-0.17578-0.89453-0.31641-1.3594-0.44141v-21.832h18.582v-5.6719h-18.582v-19.758h-5.6719v19.758h-18.578v5.6719h18.578v21.836c-6.1836 1.5664-9.9219 7.8516-8.3633 14.031 0.11328 0.46484 0.26562 0.91797 0.44141 1.3672-17.051 1.5312-33.586 6.6836-48.484 15.113zm59.242 312.96h-80.387c-6.6719 0-12.082 5.4219-12.082 12.09 0 6.6758 5.4102 12.09 12.082 12.09h160.77c6.6758 0 12.09-5.4141 12.09-12.09 0-6.668-5.4141-12.09-12.09-12.09h-80.379m0 29.801h-86.316c-3.3945 0-6.1484 2.7578-6.1484 6.1523s2.75 6.1523 6.1484 6.1523h86.316 86.309c3.3945 0.007813 6.1602-2.7461 6.1602-6.1406 0.007812-3.3945-2.7461-6.1602-6.1406-6.1602-0.015624-0.003906-86.328-0.003906-86.328-0.003906z"/>
</svg>